Coordinates
version=1
nRows=23
nColumns=38
inDegrees=no

Units are S.I. units (second, meters, Newtons, ...)
If the header above contains a line with 'inDegrees', this indicates whether rotational values are in degrees (yes) or radians (no).

endheader
time	pelvis_tilt	pelvis_list	pelvis_rotation	pelvis_tx	pelvis_ty	pelvis_tz	hip_flexion_r	hip_adduction_r	hip_rotation_r	knee_angle_r	ankle_angle_r	subtalar_angle_r	mtp_angle_r	hip_flexion_l	hip_adduction_l	hip_rotation_l	knee_angle_l	ankle_angle_l	subtalar_angle_l	mtp_angle_l	lumbar_extension	lumbar_bending	lumbar_rotation	arm_flex_r	arm_add_r	arm_rot_r	elbow_flex_r	pro_sup_r	wrist_flex_r	wrist_dev_r	arm_flex_l	arm_add_l	arm_rot_l	elbow_flex_l	pro_sup_l	wrist_flex_l	wrist_dev_l
5.59	3.10159	1.5143	1.46999	0.765231	-0.43348	0.955292	0.0678567	-0.0840052	-0.0808934	0.0474366	-0.0603987	0	0	0.095285	-0.264836	0.0519094	0.483392	0.0610093	0	0	0.0580533	0.0119052	-0.0588433	-0.245847	-0.034791	-0.353803	0.323375	1.5708	0	0	-0.188485	-0.150766	-0.298171	0.55709	1.39295	0	0
5.6	3.07088	1.51566	1.50712	0.761042	-0.433325	0.955618	0.0606715	-0.0805018	-0.0821779	0.0395421	-0.0614951	0	0	0.110416	-0.263513	0.0478153	0.509262	0.0560583	0	0	0.0535922	0.0115753	-0.0570068	-0.241936	-0.038457	-0.353404	0.32161	1.5708	0	0	-0.176961	-0.161598	-0.350371	0.560989	1.5708	0	0
5.61	3.04876	1.51525	1.53376	0.757199	-0.433235	0.956024	0.0570345	-0.076862	-0.0830453	0.0341608	-0.0626972	0	0	0.125637	-0.261776	0.0417315	0.533077	0.051278	0	0	0.0520026	0.0134975	-0.0522416	-0.239268	-0.043488	-0.35473	0.319649	1.5708	0	0	-0.172096	-0.159433	-0.344337	0.56198	1.5708	0	0
5.62	3.02145	1.51518	1.56487	0.753503	-0.433146	0.956452	0.0535644	-0.0737775	-0.0838481	0.0295163	-0.0637294	0	0	0.138939	-0.259208	0.0335957	0.554465	0.0471924	0	0	0.0504536	0.0150577	-0.0472492	-0.236147	-0.0488466	-0.35564	0.316713	1.5708	0	0	-0.167726	-0.1578	-0.335823	0.562679	1.5708	0	0
5.63	3.01101	1.51303	1.57862	0.750194	-0.433127	0.956906	0.0525255	-0.0701379	-0.0835527	0.0249172	-0.0663572	0	0	0.153193	-0.256559	0.0251292	0.57374	0.0466328	0	0	0.051769	0.0187011	-0.0425373	-0.233946	-0.0556247	-0.356137	0.314663	1.5708	0	0	-0.16804	-0.140213	-0.306375	0.561096	1.50374	0	0
5.64	2.97418	1.51389	1.61929	0.7468	-0.433074	0.957409	0.0480644	-0.0679868	-0.0845356	0.0204066	-0.0674937	0	0	0.162822	-0.251914	0.0170621	0.590386	0.0513134	0	0	0.048756	0.0195111	-0.0380328	-0.232214	-0.0608614	-0.357287	0.31565	1.5708	0	0	-0.163591	-0.137248	-0.304842	0.559836	1.5129	0	0
5.65	2.92567	1.51474	1.67136	0.74359	-0.433114	0.957957	0.0437808	-0.0667072	-0.0857401	0.0164994	-0.0682922	0	0	0.170692	-0.245541	0.00948585	0.604276	0.0605401	0	0	0.0454992	0.0196271	-0.0337833	-0.230754	-0.0661918	-0.358727	0.317873	1.5708	0	0	-0.159586	-0.13424	-0.30635	0.559383	1.53315	0	0
5.66	2.84429	1.51669	1.75652	0.740383	-0.433145	0.958449	0.0380858	-0.0670297	-0.0876376	0.0131256	-0.0680793	0	0	0.175899	-0.237131	0.00171366	0.615703	0.0721986	0	0	0.0405445	0.0171669	-0.0308087	-0.228701	-0.0707676	-0.358787	0.320574	1.5708	0	0	-0.153215	-0.148731	-0.320475	0.565534	1.5708	0	0
5.67	2.76987	1.51631	1.83372	0.737572	-0.433179	0.959002	0.0359282	-0.0678489	-0.0890445	0.0117585	-0.0681513	0	0	0.181966	-0.227456	-0.00569098	0.624273	0.0831314	0	0	0.0387484	0.0158143	-0.029099	-0.225292	-0.0768478	-0.355887	0.319682	1.5708	0	0	-0.152239	-0.146309	-0.318909	0.56732	1.5708	0	0
5.68	2.70236	1.5156	1.90328	0.735098	-0.433127	0.95963	0.0348201	-0.0688475	-0.0896719	0.0116148	-0.0681474	0	0	0.186958	-0.216825	-0.0128976	0.629793	0.0924856	0	0	0.0360244	0.0119398	-0.0347605	-0.215529	-0.084115	-0.347644	0.31439	1.5708	0	0	-0.157738	-0.143082	-0.323427	0.574937	1.5708	0	0
5.69	2.61201	1.51378	1.99749	0.732542	-0.433274	0.9601	0.0326789	-0.0713839	-0.0917417	0.0100709	-0.0674327	0	0	0.191828	-0.204102	-0.0193381	0.63299	0.100399	0	0	0.0362721	0.0122864	-0.0223628	-0.222675	-0.0864021	-0.3641	0.324295	1.5708	0	0	-0.147434	-0.144865	-0.29595	0.563824	1.5708	0	0
5.7	2.57926	1.51011	2.033	0.7306	-0.433339	0.960631	0.0353424	-0.0726407	-0.0936256	0.0112612	-0.0674029	0	0	0.19903	-0.192124	-0.0253288	0.634545	0.107636	0	0	0.0387007	0.0127999	-0.0200871	-0.221247	-0.0929038	-0.36549	0.325372	1.5708	0	0	-0.152999	-0.127518	-0.2475	0.560773	1.41455	0	0
5.71	2.49143	1.50857	2.12504	0.728326	-0.433288	0.960988	0.0332788	-0.0757236	-0.0975255	0.0117531	-0.0653087	0	0	0.202178	-0.178505	-0.0319555	0.634805	0.114635	0	0	0.0359222	0.00877072	-0.0195672	-0.218928	-0.0966401	-0.366638	0.327963	1.5708	0	0	-0.144822	-0.140423	-0.286516	0.561888	1.5708	0	0
5.72	2.47959	1.50393	2.13961	0.726626	-0.433338	0.961336	0.0381089	-0.0772357	-0.100387	0.0149373	-0.0643139	0	0	0.209561	-0.166349	-0.0392834	0.633225	0.120206	0	0	0.0398405	0.00932814	-0.0179088	-0.21791	-0.10289	-0.367121	0.329716	1.5708	0	0	-0.150307	-0.12455	-0.233643	0.55586	1.41036	0	0
5.73	2.4477	1.50081	2.17549	0.724814	-0.433365	0.961601	0.0392711	-0.0789289	-0.103242	0.0159971	-0.0633668	0	0	0.214283	-0.154304	-0.0472912	0.629791	0.124258	0	0	0.0406902	0.00815652	-0.0184417	-0.215664	-0.107541	-0.367848	0.331389	1.5708	0	0	-0.149107	-0.122874	-0.229477	0.551567	1.41296	0	0
5.74	2.42598	1.49784	2.20154	0.723109	-0.433369	0.961812	0.0404888	-0.0801737	-0.106381	0.016968	-0.0624592	0	0	0.21845	-0.14309	-0.0565523	0.624496	0.12698	0	0	0.0416699	0.00750989	-0.0195783	-0.213437	-0.112007	-0.368637	0.333235	1.5708	0	0	-0.14778	-0.120988	-0.226301	0.545927	1.41616	0	0
5.75	2.40672	1.49531	2.2253	0.721488	-0.433413	0.962002	0.0409375	-0.0811654	-0.109315	0.0173694	-0.0617026	0	0	0.22096	-0.132324	-0.066905	0.616772	0.129977	0	0	0.042065	0.00702263	-0.021138	-0.211179	-0.116164	-0.369482	0.335164	1.5708	0	0	-0.146514	-0.119327	-0.222756	0.541618	1.41528	0	0
5.76	2.3908	1.49293	2.2458	0.719963	-0.433425	0.96215	0.041625	-0.082112	-0.112598	0.0183263	-0.0603866	0	0	0.222887	-0.121983	-0.0779547	0.607787	0.134093	0	0	0.0425571	0.0065302	-0.0227807	-0.20889	-0.119875	-0.370329	0.33702	1.5708	0	0	-0.144084	-0.117918	-0.218887	0.535323	1.41665	0	0
5.77	2.37924	1.49057	2.26224	0.718552	-0.433431	0.962249	0.0424516	-0.0830165	-0.116178	0.0193631	-0.0589219	0	0	0.224474	-0.112019	-0.08951	0.597743	0.139246	0	0	0.0431744	0.00612297	-0.0249743	-0.206466	-0.12328	-0.371124	0.338641	1.5708	0	0	-0.141088	-0.116755	-0.215256	0.527129	1.41963	0	0
5.78	2.37295	1.48809	2.27355	0.717261	-0.433442	0.962305	0.043409	-0.0838389	-0.119857	0.0200722	-0.0576085	0	0	0.225613	-0.102314	-0.10138	0.58632	0.145454	0	0	0.0441638	0.00603666	-0.0270341	-0.204501	-0.126433	-0.372021	0.340663	1.5708	0	0	-0.137785	-0.115343	-0.212379	0.516723	1.42303	0	0
5.79	2.367	1.48617	2.2845	0.716052	-0.433472	0.962359	0.0434104	-0.0842938	-0.123345	0.0199443	-0.0564628	0	0	0.225489	-0.0930891	-0.113634	0.573529	0.15231	0	0	0.0446858	0.00612524	-0.0286459	-0.202883	-0.129207	-0.372946	0.342863	1.5708	0	0	-0.133502	-0.113773	-0.209865	0.506156	1.42672	0	0
5.8	2.36467	1.48449	2.29186	0.71492	-0.433473	0.962362	0.0428975	-0.0843127	-0.126415	0.018731	-0.0559234	0	0	0.225254	-0.0846107	-0.125981	0.560575	0.159677	0	0	0.045118	0.00640341	-0.030206	-0.20108	-0.131504	-0.374692	0.344604	1.5708	0	0	-0.129155	-0.113174	-0.20157	0.497787	1.41808	0	0
5.81	2.36718	1.48292	2.29418	0.713829	-0.43346	0.962328	0.0426172	-0.0839549	-0.129275	0.0174428	-0.0555032	0	0	0.224708	-0.0768557	-0.138333	0.546922	0.166654	0	0	0.0459235	0.00703224	-0.0318576	-0.198707	-0.133544	-0.376282	0.345156	1.5708	0	0	-0.125095	-0.11278	-0.192922	0.488046	1.40825	0	0
